<svg id="Layer_1" data-name="Layer 1" xmlns="http://www.w3.org/2000/svg" viewBox="0 0 304.32 93.2"><defs><style>.cls-1,.cls-2,.cls-3{fill:#fff;}.cls-1,.cls-2,.cls-3,.cls-4,.cls-6,.cls-7,.cls-8,.cls-9{stroke:#000;stroke-miterlimit:10;}.cls-1,.cls-9{stroke-width:2px;}.cls-2{stroke-width:14px;}.cls-3{stroke-width:16px;}.cls-4{stroke-width:3px;}.cls-5{fill:#fdfeff;}.cls-7,.cls-8{fill:none;}.cls-7{stroke-width:13px;}.cls-8{stroke-width:12px;}</style></defs><circle class="cls-1" cx="46.6" cy="46.6" r="45.6"/><ellipse class="cls-2" cx="46.6" cy="46.6" rx="27.6" ry="26.7"/><polygon class="cls-3" points="75.1 69.88 74.6 70.5 67.5 66.02 68 65.4 75.1 69.88"/><circle class="cls-4" cx="46.6" cy="46.6" r="17"/><circle class="cls-5" cx="53.91" cy="33.83" r="4.6"/><path class="cls-6" d="M274.68,18h-.29a30.76,30.76,0,0,0-20.63,9,30.51,30.51,0,0,1,6.06,12.23c2.45-4.31,8.61-9.19,14.86-9a17.17,17.17,0,0,1,17,17v.2a17,17,0,1,1-34,0h0v-.1a29.34,29.34,0,0,0-58.67,0v.2a29.2,29.2,0,0,0,8.61,20.63c5.28,5.28,15,9.88,23.76,8.61h0a29.27,29.27,0,0,0,17.6-9,31.54,31.54,0,0,1-6.16-12.12A17.08,17.08,0,0,1,231,64.22h0c-11,1.66-19.56-7.72-19.66-16.92A17,17,0,0,1,245.27,47v.2h0v.09a29.31,29.31,0,0,0,58.57.1v-.19A29.17,29.17,0,0,0,274.74,18Z"/><path class="cls-7" d="M127.2,24.2h0a23.69,23.69,0,0,1,23.7,23.68v0h0a23.69,23.69,0,0,1-23.68,23.7h0a23.69,23.69,0,0,1-23.7-23.68v0h0A23.75,23.75,0,0,1,127.2,24.2Z"/><rect class="cls-8" x="150.9" y="24.2" width="1.3" height="47.3"/><rect class="cls-9" x="167.1" y="19.9" width="10.7" height="56.7"/><path class="cls-6" d="M193.1,29.4a11.82,11.82,0,0,0-11.9,2.8,10.87,10.87,0,0,0-3,7.3l-5.7-.6a20.68,20.68,0,0,1,4.9-14.8c6.2-7.1,14.9-6.9,16.1-6.9C193.4,21.3,193.3,25.4,193.1,29.4Z"/></svg>